<svg xmlns="http://www.w3.org/2000/svg" viewBox="0 0 100 100">
  <path fill="#3730a3" d="M50 8 L92.5 86a4.6 4.6 0 0 1-4.1 6.7H11.6a4.6 4.6 0 0 1-4.1-6.7L50 8z"/>
  <path fill="#ffffff" d="M58 26 L33 92.7H21L47 20z"/>
  <path fill="#ffffff" d="M50 8 L63.5 31 51 45 36.5 31z"/>
  <circle cx="50.5" cy="45" r="3.1" fill="#3730a3"/>
  <circle cx="38.5" cy="70.5" r="3.1" fill="#3730a3"/>
  <line x1="62" y1="29" x2="73" y2="15" stroke="#3730a3" stroke-width="3.4" stroke-linecap="round"/>
  <circle cx="67.5" cy="22" r="2.3" fill="#3730a3"/>
  <circle cx="80" cy="14" r="15.5" fill="#ffffff" stroke="#3730a3" stroke-width="2"/>
  <path fill="#3730a3" d="M80 6 68 11 80 16 92 11 80 6z"/>
  <path fill="#3730a3" d="M71.5 12.8v5c0 2 3.8 3.7 8.5 3.7s8.5-1.7 8.5-3.7v-5l-8.5 3.4-8.5-3.4z"/>
  <circle cx="91.5" cy="10.8" r="1.3" fill="#3730a3"/>
</svg>
